<svg width="78" height="40" viewBox="0 0 78 40" fill="none" xmlns="http://www.w3.org/2000/svg">
<path d="M0.24 0.359998H7.755V28.485H20.895V36H0.24V0.359998Z" fill="white"/>
<path d="M33.507 0.359998V10.395C35.577 9.225 37.827 8.64 40.257 8.64C44.187 8.64 47.547 10.035 50.337 12.825C53.127 15.585 54.522 18.93 54.522 22.86C54.522 26.79 53.127 30.15 50.337 32.94C47.547 35.73 44.187 37.125 40.257 37.125C37.827 37.125 35.577 36.54 33.507 35.37V39.735H25.992V0.359998H33.507ZM47.007 22.86C47.007 21.06 46.332 19.485 44.982 18.135C43.632 16.785 42.057 16.11 40.257 16.11C38.427 16.11 36.837 16.785 35.487 18.135C34.167 19.485 33.507 21.06 33.507 22.86C33.507 24.69 34.167 26.28 35.487 27.63C36.837 28.95 38.427 29.61 40.257 29.61C42.057 29.61 43.632 28.95 44.982 27.63C46.332 26.28 47.007 24.69 47.007 22.86Z" fill="#B6CE97"/>
<path d="M58.7435 9.765H62.4785V0.359998H69.9935V9.765H77.8685V17.235H69.9935V22.86C69.9935 24.69 70.6535 26.28 71.9735 27.63C73.3235 28.95 74.9135 29.61 76.7435 29.61H77.8685V37.125H76.7435C72.8135 37.125 69.4535 35.73 66.6635 32.94C63.8735 30.15 62.4785 26.79 62.4785 22.86V17.235H58.7435V9.765Z" fill="#75A638"/>
</svg>
